<svg xmlns="http://www.w3.org/2000/svg" viewBox="0 0 126 135" width="126" height="135">
	<defs>
		<linearGradient id="grd1" gradientUnits="userSpaceOnUse"  x1="55.397" y1="52.964" x2="103.338" y2="100.905">
			<stop offset="0" stop-color="#263238" stop-opacity="0.2" />
			<stop offset="1" stop-color="#263238" stop-opacity="0.02" />
		</linearGradient>
		<radialGradient id="grd2" gradientUnits="userSpaceOnUse"  cx="16.382" cy="16.753" r="113.159">
			<stop offset="0" stop-color="#ffffff" stop-opacity="0.1" />
			<stop offset="1" stop-color="#ffffff" stop-opacity="0" />
		</radialGradient>
	</defs>
	<style>
		tspan { white-space:pre }
		.shp0 { fill: none } 
		.shp1 { fill: #00897b } 
		.shp2 { fill: url(#grd1) } 
		.shp3 { opacity: 0.2;fill: #263238 } 
		.shp4 { fill: #f5f5f5 } 
		.shp5 { fill: #e0e0e0 } 
		.shp6 { opacity: 0.02;fill: #212121 } 
		.shp7 { opacity: 0.051;fill: #ffffff } 
		.shp8 { opacity: 0.2;fill: #ffffff } 
		.shp9 { fill: url(#grd2) } 
	</style>
	<path id="Layer" class="shp0" d="M-14 -5L126 -5L126 135L-14 135L-14 -5Z" />
	<path id="Layer" class="shp1" d="M111.42 56.25C111.42 25.65 86.59 0.83 56 0.83C25.41 0.83 0.58 25.65 0.58 56.25C0.58 85.24 27.02 108.75 56 108.75L56 129.17C89.66 112.09 111.42 84.61 111.42 56.25L111.42 56.25Z" />
	<path id="Layer" class="shp2" d="M90.27 36.2L83 56.25L42.88 56.25L26.78 75.99L85.79 135L125.27 135L125.27 71.2L90.27 36.2Z" />
	<path id="Layer" fill-rule="evenodd" class="shp3" d="M56 108.75C27.02 108.75 0.58 85.24 0.58 56.25C0.58 56.12 0.59 55.99 0.59 55.86C0.8 84.7 27.13 108.02 56 108.02L56 108.75ZM111.41 55.9C111.41 56.01 111.42 56.13 111.42 56.25C111.42 84.61 89.66 112.09 56 129.17L56 128.44C89.51 111.44 111.22 84.12 111.41 55.9ZM73.56 75.98C74.99 74.55 75.7 72.69 75.7 70.82L75.7 71.55C75.7 72.03 75.65 72.51 75.56 72.97C75.47 73.44 75.33 73.9 75.14 74.34C74.96 74.78 74.73 75.21 74.47 75.6C74.2 76 73.9 76.37 73.56 76.71C72.13 78.14 70.27 78.85 68.4 78.85L31.94 78.85C30.07 78.85 28.21 78.14 26.78 76.71C25.35 75.28 24.64 73.42 24.64 71.55L24.64 70.82C24.64 72.69 25.35 74.55 26.78 75.98C28.21 77.41 30.07 78.12 31.94 78.12L68.4 78.12C70.26 78.12 72.13 77.41 73.56 75.98ZM75.69 61.72L90.27 76.3L90.27 77.03L75.69 62.45L75.69 61.72Z" />
	<path id="Layer" class="shp4" d="M75.69 50.78L75.69 41.67C75.69 39.8 74.98 37.94 73.55 36.51C73.21 36.17 72.84 35.87 72.44 35.6C72.05 35.34 71.62 35.11 71.18 34.93C70.74 34.74 70.28 34.6 69.81 34.51C69.35 34.42 68.87 34.37 68.39 34.37L31.94 34.37C30.07 34.37 28.21 35.08 26.78 36.51C26.44 36.85 26.14 37.22 25.87 37.62C25.61 38.01 25.38 38.44 25.2 38.88C25.01 39.32 24.87 39.78 24.78 40.25C24.69 40.71 24.64 41.19 24.64 41.67L24.64 70.84C24.64 72.71 25.35 74.57 26.78 76C28.21 77.43 30.07 78.14 31.94 78.14L68.4 78.14C70.27 78.14 72.13 77.43 73.56 76C73.9 75.66 74.2 75.29 74.47 74.89C74.73 74.5 74.96 74.07 75.14 73.63C75.33 73.19 75.47 72.73 75.56 72.26C75.65 71.8 75.7 71.32 75.7 70.84L75.7 61.73L90.28 76.31L90.28 36.2L75.69 50.78Z" />
	<path id="Layer" class="shp5" d="M24.65 41.67L24.65 56.25L90.27 56.25L90.27 36.2L75.69 50.78L75.69 41.67C75.69 39.8 74.98 37.94 73.55 36.51C73.21 36.17 72.84 35.87 72.44 35.6C72.05 35.34 71.62 35.11 71.18 34.93C70.74 34.74 70.28 34.6 69.81 34.51C69.35 34.42 68.87 34.37 68.39 34.37L31.94 34.37C30.07 34.37 28.21 35.08 26.78 36.51C26.44 36.85 26.14 37.22 25.87 37.62C25.61 38.01 25.38 38.44 25.2 38.88C25.02 39.32 24.88 39.78 24.79 40.25C24.69 40.72 24.65 41.19 24.65 41.67Z" />
	<path id="Layer" class="shp6" d="M24.65 55.52L90.27 55.52L90.27 56.25L24.65 56.25L24.65 55.52Z" />
	<g id="Layer">
		<path id="Layer" class="shp7" d="M24.65 56.25L90.27 56.25L90.27 56.98L24.65 56.98L24.65 56.25Z" />
		<path id="Layer" class="shp8" d="M31.94 35.1L68.4 35.1C70.27 35.1 72.13 35.81 73.56 37.24C73.9 37.58 74.2 37.95 74.47 38.35C74.73 38.74 74.96 39.17 75.14 39.61C75.33 40.05 75.47 40.51 75.56 40.98C75.65 41.44 75.7 41.92 75.7 42.4L75.7 41.67C75.7 39.8 74.99 37.94 73.56 36.51C73.22 36.17 72.85 35.87 72.45 35.6C72.06 35.34 71.63 35.11 71.19 34.93C70.75 34.74 70.29 34.6 69.82 34.51C69.36 34.42 68.88 34.37 68.4 34.37L31.94 34.37C30.07 34.37 28.21 35.08 26.78 36.51C26.44 36.85 26.14 37.22 25.87 37.62C25.61 38.01 25.38 38.44 25.2 38.88C25.01 39.32 24.87 39.78 24.78 40.25C24.69 40.71 24.64 41.19 24.64 41.67L24.64 42.4C24.64 40.53 25.35 38.67 26.78 37.24C27.12 36.9 27.49 36.6 27.89 36.33C28.28 36.07 28.71 35.84 29.15 35.66C29.59 35.47 30.05 35.33 30.52 35.24C30.99 35.15 31.46 35.1 31.94 35.1L31.94 35.1ZM75.69 50.78L75.69 51.51L90.27 36.93L90.27 36.2L75.69 50.78Z" />
		<path id="Layer" class="shp8" d="M56 1.56C86.47 1.56 111.22 26.18 111.41 56.62C111.41 56.49 111.42 56.37 111.42 56.24C111.42 25.64 86.59 0.82 56 0.82C25.41 0.82 0.58 25.65 0.58 56.25C0.58 56.37 0.59 56.48 0.59 56.59C0.8 26.17 25.54 1.56 56 1.56Z" />
	</g>
	<path id="Layer" class="shp9" d="M111.42 56.25C111.42 25.65 86.59 0.83 56 0.83C25.41 0.83 0.58 25.65 0.58 56.25C0.58 85.24 27.02 108.75 56 108.75L56 129.17C89.66 112.09 111.42 84.61 111.42 56.25L111.42 56.25Z" />
</svg>